<svg width="64" height="53" viewBox="0 0 64 53" fill="none" xmlns="http://www.w3.org/2000/svg">
<path d="M18.6512 19.3224L16.1086 17.1191H34.2245L31.4436 19.3224H18.6512Z" stroke="black" stroke-width="0.48962"/>
<path d="M18.6781 30.2142C18.6794 29.7857 18.6984 22.7844 18.7083 19.3202L31.4084 19.3202L31.4084 30.2142L18.6781 30.2142Z" stroke="black" stroke-width="0.48962"/>
<path d="M30.3067 30.0925V20.5449H19.7799V30.0925" stroke="black" stroke-width="0.48962"/>
<path d="M47.7203 30.3166L3.65515 30.0859L10.7063 36.6472L40.8134 36.6944L47.7203 30.3166Z" fill="#FFDC22" stroke="black" stroke-width="0.48962"/>
<circle cx="15.6191" cy="42.573" r="9.30277" fill="#891616" stroke="black" stroke-width="0.48962"/>
<circle cx="34.958" cy="42.573" r="9.30277" fill="#891616" stroke="black" stroke-width="0.48962"/>
<path d="M51.5317 40.3705H44.014C44.014 40.3705 44.2225 41.3341 44.2588 41.9618C44.2808 42.3436 44.2588 43.0634 44.2588 43.0634H44.4824L51.9703 42.941C58.3354 41.9618 62.2523 34.9847 62.7419 30.5781H59.9266C59.6882 33.2006 57.3858 38.1449 52.3793 40.2105C52.1112 40.3211 51.8218 40.3705 51.5317 40.3705Z" fill="#FFB800" stroke="black" stroke-width="0.48962"/>
<path d="M0.683533 40.3672H6.55897C6.43656 40.9792 6.23632 42.3257 6.35872 43.4273H0.683533V40.3672Z" fill="#FFB800" stroke="black" stroke-width="0.48962"/>
<circle cx="15.6211" cy="42.5705" r="2.4481" stroke="#FFD600" stroke-width="0.979239"/>
<circle cx="34.9558" cy="42.5705" r="2.4481" stroke="#FFD600" stroke-width="0.979239"/>
<circle cx="15.6175" cy="42.5671" r="0.979239" fill="black"/>
<circle cx="34.9564" cy="42.5671" r="0.979239" fill="black"/>
<path d="M25.1601 8.54102L36.6087 17.1706H13.7115L25.1601 8.54102Z" fill="#F3C91B" stroke="black" stroke-width="0.48962"/>
<path d="M24.4862 21.04C23.9694 20.6436 23.5942 21.0734 23.4711 21.3378C23.2865 21.2717 22.8804 21.2385 22.7328 21.6349C22.5482 21.6019 22.1607 21.6349 22.0868 22.0313C21.81 22.0313 21.4409 22.1304 21.3486 22.6258C21.1641 22.6588 20.7949 22.824 20.7949 23.2203C20.6104 23.2203 20.2597 23.3194 20.3335 23.7158C20.149 23.7818 19.7799 24.0328 19.7799 24.5085V20.5449H30.2998V24.5572C30.3087 24.6052 30.3094 24.6551 30.2998 24.7067V24.5572C30.2402 24.2363 29.8144 24.0002 29.6538 23.914C29.7276 23.5176 29.377 23.3525 29.1924 23.3194C29.1924 22.8438 28.7618 22.6588 28.5465 22.6258C28.5465 22.1502 28.1158 22.0313 27.9005 22.0313C27.7529 21.3971 27.2853 21.4367 27.07 21.5358C26.9224 21.0602 26.5163 21.1395 26.3318 21.2385C26.1103 20.7629 25.6243 20.908 25.409 21.04C25.1137 20.564 24.6707 20.8417 24.4862 21.04Z" fill="#FFD600" stroke="#171414" stroke-width="0.184558"/>
<path d="M14.392 17.4863H35.9352" stroke="#BF161C" stroke-width="0.48962"/>
<path d="M32.5216 3.4379C28.9585 3.23234 27.8679 4.77975 27.768 5.57915C26.4319 5.33923 26.3548 6.25011 26.4833 6.73554C26.7138 7.22547 27.1828 7.30529 27.4873 7.2758C27.5891 7.26595 27.6823 7.21923 27.7659 7.16024L28.3676 6.73554C29.3611 5.63922 31.4081 6.05034 32.3075 6.39294C34.7399 7.2837 34.6343 4.50864 34.2774 3.00977C33.7978 3.31811 32.907 3.42366 32.5216 3.4379Z" fill="#C52026"/>
<path d="M27.768 5.57915C27.8679 4.77975 28.9585 3.23234 32.5216 3.4379C32.907 3.42366 33.7978 3.31811 34.2774 3.00977C34.6343 4.50864 34.7399 7.2837 32.3075 6.39294C31.4081 6.05034 29.3611 5.63922 28.3676 6.73554L27.7659 7.16024C27.6823 7.21923 27.5891 7.26595 27.4873 7.2758C27.1828 7.30529 26.7138 7.22547 26.4833 6.73554C26.3548 6.25011 26.4319 5.33923 27.768 5.57915ZM27.768 5.57915C27.968 5.73621 28.3079 6.11886 28.0679 6.39294C27.8529 6.63859 27.638 6.75214 27.4073 6.7178C27.2114 6.68864 27.0531 6.50488 27.082 6.30898C27.1004 6.18476 27.1781 6.07501 27.3736 6.05246C27.4638 6.04206 27.56 6.06549 27.6186 6.13486C27.6431 6.16393 27.663 6.1986 27.671 6.2379C27.6919 6.34016 27.5815 6.42813 27.4797 6.40513C27.4225 6.39222 27.3774 6.3533 27.3827 6.26447" stroke="#95070C" stroke-width="0.238231"/>
<path d="M17.8195 3.48477C21.3825 3.27921 22.4731 4.8266 22.573 5.62599C23.9091 5.38608 23.9862 6.29695 23.8577 6.78237C23.6272 7.27229 23.1582 7.35211 22.8537 7.32263C22.7518 7.31277 22.6587 7.26605 22.5751 7.20706L21.9734 6.78237C20.9799 5.68606 18.9329 6.09718 18.0336 6.43977C15.6011 7.33052 15.7068 4.5555 16.0637 3.05664C16.5433 3.36498 17.434 3.47053 17.8195 3.48477Z" fill="#C52026"/>
<path d="M22.573 5.62599C22.4731 4.8266 21.3825 3.27921 17.8195 3.48477C17.434 3.47053 16.5433 3.36498 16.0637 3.05664C15.7068 4.5555 15.6011 7.33052 18.0336 6.43977C18.9329 6.09718 20.9799 5.68606 21.9734 6.78237L22.5751 7.20706C22.6587 7.26605 22.7518 7.31277 22.8537 7.32263C23.1582 7.35211 23.6272 7.27229 23.8577 6.78237C23.9862 6.29695 23.9091 5.38608 22.573 5.62599ZM22.573 5.62599C22.373 5.78305 22.0331 6.1657 22.2731 6.43977C22.4881 6.68542 22.703 6.79897 22.9337 6.76463C23.1296 6.73547 23.2879 6.55171 23.2589 6.35581C23.2406 6.23159 23.1629 6.12185 22.9674 6.09929C22.8772 6.08889 22.781 6.11232 22.7224 6.1817C22.6979 6.21076 22.678 6.24544 22.67 6.28473C22.6491 6.387 22.7595 6.47496 22.8613 6.45197C22.9185 6.43906 22.9636 6.40013 22.9583 6.3113" stroke="#95070C" stroke-width="0.238231"/>
<path d="M25.1947 0.469727C26.1622 1.00696 26.7218 1.52967 27.0052 2.01172C27.2924 2.50024 27.3044 2.9578 27.1546 3.37988C27.0014 3.81146 26.6736 4.21817 26.2621 4.57422C25.8852 4.90026 25.4478 5.17173 25.0414 5.375C24.154 4.80973 23.6381 4.2711 23.3763 3.7793C23.1087 3.27648 23.0989 2.81248 23.2396 2.39258C23.3828 1.96519 23.6875 1.57063 24.0677 1.22949C24.4161 0.916955 24.8194 0.659098 25.1947 0.469727Z" stroke="black" stroke-width="0.42825"/>
<path fill-rule="evenodd" clip-rule="evenodd" d="M27.2174 8.40496C27.7741 7.07708 29.1445 5.06418 32.3564 6.52039C32.8417 6.60609 33.9409 6.68327 34.4548 6.30641C33.7696 9.0044 30.0867 13.501 27.2174 8.40496ZM32.3564 7.03444C29.3758 5.93812 28.0882 7.49124 27.8169 8.40484C30.0781 12.1049 32.8988 8.94729 34.0266 6.90596C33.3414 7.21442 32.6276 7.12014 32.3564 7.03444Z" fill="black" stroke="black" stroke-width="0.1713"/>
<path fill-rule="evenodd" clip-rule="evenodd" d="M23.108 8.44391C22.5513 7.11609 21.1809 5.10328 17.969 6.55943C17.4837 6.64512 16.3845 6.7223 15.8706 6.34546C16.5558 9.04331 20.2388 13.5397 23.108 8.44391ZM17.969 7.07345C20.9497 5.97718 22.2373 7.53023 22.5085 8.44378C20.2473 12.1437 17.4266 8.98621 16.2989 6.94498C16.9841 7.25342 17.6978 7.15914 17.969 7.07345Z" fill="black" stroke="black" stroke-width="0.1713"/>
<circle cx="19.9782" cy="8.36063" r="1.3704" fill="#1B1A1A"/>
<circle cx="19.9802" cy="8.36431" r="0.734095" fill="#1B1A1A" stroke="#C52026" stroke-width="0.24481"/>
<circle cx="30.4256" cy="8.36063" r="1.3704" fill="#1B1A1A"/>
<circle cx="30.4315" cy="8.36431" r="0.734095" fill="#1B1A1A" stroke="#C52026" stroke-width="0.24481"/>
<circle cx="25.2056" cy="2.9661" r="1.3704" fill="#1B1A1A"/>
<circle cx="25.2002" cy="2.96783" r="0.734095" fill="#1B1A1A" stroke="#C52026" stroke-width="0.24481"/>
</svg>
