<svg width="63" height="61" viewBox="0 0 63 61" fill="none" xmlns="http://www.w3.org/2000/svg">
<path d="M17.385 25.9111L14.0236 22.9785H37.9732L34.2967 25.9111H17.385Z" stroke="black" stroke-width="0.506746"/>
<path d="M17.4443 37.0285C17.446 36.6007 17.4315 29.4633 17.4447 26.0052L34.3072 26.0052L34.3072 37.0285L17.4443 37.0285Z" stroke="black" stroke-width="0.506746"/>
<path d="M32.8478 36.9079V27.377H18.9179V36.9079" stroke="black" stroke-width="0.506746"/>
<path d="M49.5063 37.1109L2.58539 36.8652L10.0896 44.6022L42.1479 44.6397L49.5063 37.1109Z" fill="#FFDC22" stroke="black" stroke-width="0.506746"/>
<path d="M15.5001 41.3018C20.6238 41.3019 24.7774 45.4563 24.7774 50.5801C24.7772 55.7037 20.6237 59.8573 15.5001 59.8574C10.3763 59.8574 6.2219 55.7038 6.22174 50.5801C6.22174 45.4562 10.3762 41.3018 15.5001 41.3018Z" fill="#891616" stroke="black" stroke-width="0.506746"/>
<path d="M34.8044 41.3018C39.9282 41.3019 44.0818 45.4563 44.0818 50.5801C44.0816 55.7037 39.9281 59.8573 34.8044 59.8574C29.6807 59.8574 25.5263 55.7038 25.5261 50.5801C25.5261 45.4562 29.6806 41.3018 34.8044 41.3018Z" fill="#891616" stroke="black" stroke-width="0.506746"/>
<path d="M51.3281 48.3867H43.8395C43.8395 48.3867 44.0477 49.3486 44.0839 49.9752C44.1059 50.3563 44.0839 51.0749 44.0839 51.0749H44.3071L51.782 50.9527C58.136 49.9752 62.0461 43.0102 62.5349 38.6113H59.7245C59.4867 41.2267 57.1926 46.1552 52.2051 48.2208C51.9277 48.3357 51.6283 48.3867 51.3281 48.3867Z" fill="#FFB800" stroke="black" stroke-width="0.506746"/>
<path d="M0.585999 48.3906H6.4512C6.32901 49.0016 6.12911 50.3457 6.2513 51.4454H0.585999V48.3906Z" fill="#FFB800" stroke="black" stroke-width="0.506746"/>
<path d="M15.495 48.1689C16.8347 48.169 17.9208 49.255 17.9208 50.5947C17.9208 51.9345 16.8347 53.0205 15.495 53.0205C14.1552 53.0205 13.0692 51.9345 13.0692 50.5947C13.0692 49.255 14.1552 48.1689 15.495 48.1689Z" stroke="#FFD600" stroke-width="1.01349"/>
<path d="M34.7996 48.1689C36.1393 48.169 37.2253 49.255 37.2253 50.5947C37.2253 51.9345 36.1393 53.0205 34.7996 53.0205C33.4598 53.0205 32.3738 51.9345 32.3738 50.5947C32.3738 49.255 33.4598 48.1689 34.7996 48.1689Z" stroke="#FFD600" stroke-width="1.01349"/>
<ellipse cx="15.4931" cy="50.5908" rx="0.977533" ry="0.977533" fill="black"/>
<ellipse cx="34.8015" cy="50.5908" rx="0.977533" ry="0.977533" fill="black"/>
<path d="M26.0057 11.7285L41.244 22.9091H10.7675L26.0057 11.7285Z" fill="#F3C91B" stroke="black" stroke-width="0.506746"/>
<path d="M25.1498 27.9874C24.4656 27.4987 23.9686 28.0286 23.8057 28.3546C23.5613 28.2731 23.0236 28.2323 22.8281 28.7211C22.5837 28.6803 22.0705 28.7211 21.9727 29.2098C21.6062 29.2098 21.1174 29.332 20.9952 29.943C20.7508 29.9837 20.262 30.1874 20.262 30.6761C20.0177 30.6761 19.5533 30.7983 19.6511 31.2871C19.4067 31.3685 18.9179 31.678 18.9179 32.2646V27.377H32.8479V32.3247C32.8597 32.3839 32.8606 32.4454 32.8479 32.509V32.3247C32.7691 31.929 32.2052 31.6378 31.9926 31.5315C32.0903 31.0427 31.626 30.8391 31.3816 30.7983C31.3816 30.2118 30.8114 29.9837 30.5263 29.943C30.5263 29.3565 29.956 29.2098 29.6709 29.2098C29.4754 28.4278 28.8563 28.4767 28.5712 28.5989C28.3757 28.0123 27.8381 28.1101 27.5937 28.2323C27.3004 27.6457 26.6569 27.8246 26.3718 27.9874C25.9807 27.4005 25.3942 27.7429 25.1498 27.9874Z" fill="#FFD600" stroke="#171414" stroke-width="0.253373"/>
<path d="M21.6394 6.09489C22.2024 5.736 23.5485 5.52869 24.6452 7.36091C24.7775 7.58192 24.8402 7.83715 24.8503 8.09453L25.1925 16.7764C24.8051 17.1265 24.2629 17.9205 25.1925 18.296H27.293C27.6133 18.1619 28.0617 17.6703 27.293 16.7764L27.6867 7.8957C27.6924 7.76816 27.7095 7.64117 27.7524 7.52092C28.0472 6.69435 28.9639 5.48072 30.7567 6.09489C30.6599 4.71686 29.8629 1.92063 27.0025 2.29605C26.744 2.45515 25.9794 2.75579 25.1465 2.44214C24.9371 2.36331 24.7145 2.30455 24.4965 2.35474C23.4528 2.59504 21.8768 3.47529 21.6636 5.59984C21.6554 5.68111 21.6493 5.76418 21.6452 5.84912C21.6414 5.92938 21.6394 6.01129 21.6394 6.09489Z" fill="#FF9839"/>
<path d="M28.7526 11.7135C28.4373 12.1789 27.9951 12.5319 27.6953 12.7095C28.2092 13.268 29.8405 13.7596 30.6226 13.268C30.2279 13.119 29.1638 12.4286 28.7526 11.7135Z" fill="#FF9839"/>
<path d="M24.6785 12.7095C24.3842 12.5935 23.9138 12.2737 23.5835 11.7135C23.2856 12.1232 22.3723 13.1607 21.6394 13.1786C22.1757 13.4617 23.5344 13.7643 24.6785 12.7095Z" fill="#FF9839"/>
<path d="M21.6394 6.09489C21.6394 6.01129 21.6414 5.92938 21.6452 5.84912C21.5036 4.90644 21.6169 4.06194 21.9106 3.33763L21.483 4.19549C21.1776 3.5549 19.883 2.51047 17.9523 3.36857C18.5958 3.52946 18.8163 4.64231 18.8461 5.17862C18.9891 7.37747 20.0081 9.25309 20.4998 9.91604C21.197 10.935 22.4032 10.2289 22.8725 9.91604C22.2031 9.15898 21.3508 7.71992 21.6394 6.09489Z" fill="#FF9839"/>
<path d="M22.2071 2.74298C20.3121 1.13404 18.4662 2.48961 17.9523 3.36857C19.883 2.51047 21.1776 3.5549 21.483 4.19549L21.9106 3.33763C21.9951 3.12929 22.0945 2.9309 22.2071 2.74298Z" fill="#FF9839"/>
<path d="M27.0025 2.29605C29.7016 1.9418 30.5634 4.41165 30.7334 5.84912C30.5365 -0.630815 24.2357 -0.643953 22.2071 2.74298L21.9106 3.33763C21.6169 4.06194 21.5036 4.90644 21.6452 5.84912C21.6493 5.76418 21.6554 5.68111 21.6636 5.59984C21.8768 3.47529 23.4528 2.59504 24.4965 2.35474C24.7145 2.30455 24.9371 2.36331 25.1465 2.44214C25.9794 2.75579 26.744 2.45515 27.0025 2.29605Z" fill="white"/>
<path d="M21.6394 6.09489C22.2024 5.736 23.5485 5.52869 24.6452 7.36091C24.7775 7.58192 24.8402 7.83715 24.8503 8.09453L25.1925 16.7764C24.8051 17.1265 24.2629 17.9205 25.1925 18.296H27.293C27.6133 18.1619 28.0617 17.6703 27.293 16.7764L27.6867 7.8957C27.6924 7.76816 27.7095 7.64117 27.7524 7.52092C28.0472 6.69435 28.9639 5.48072 30.7567 6.09489M21.6394 6.09489C21.2997 8.00771 22.5407 9.66287 23.2036 10.2513C23.2036 11.753 24.1869 12.5158 24.6785 12.7095M21.6394 6.09489C21.6394 6.01129 21.6414 5.92938 21.6452 5.84912M21.6394 6.09489C21.3508 7.71992 22.2031 9.15898 22.8725 9.91604C22.4032 10.2289 21.197 10.935 20.4998 9.91604C20.0081 9.25309 18.9891 7.37747 18.8461 5.17862C18.8163 4.64231 18.5958 3.52946 17.9523 3.36857M21.6394 6.09489C21.6394 5.92282 21.6477 5.75789 21.6636 5.59984M30.7567 6.09489C30.6599 4.71686 29.8629 1.92063 27.0025 2.29605M30.7567 6.09489C30.8818 8.40101 29.7064 9.82674 29.1031 10.2513C29.3355 11.4134 28.2614 12.3743 27.6953 12.7095M27.0025 2.29605C26.744 2.45515 25.9794 2.75579 25.1465 2.44214C24.9371 2.36331 24.7145 2.30455 24.4965 2.35474C23.4528 2.59504 21.8768 3.47529 21.6636 5.59984M27.0025 2.29605C29.7016 1.9418 30.5634 4.41165 30.7334 5.84912M24.6785 12.7095C23.5344 13.7643 22.1757 13.4617 21.6394 13.1786C22.3723 13.1607 23.2856 12.1232 23.5835 11.7135C23.9138 12.2737 24.3842 12.5935 24.6785 12.7095ZM27.6953 12.7095C28.2092 13.268 29.8405 13.7596 30.6226 13.268C30.2279 13.119 29.1638 12.4286 28.7526 11.7135C28.4373 12.1789 27.9951 12.5319 27.6953 12.7095ZM21.6452 5.84912C21.5036 4.90644 21.6169 4.06194 21.9106 3.33763M21.6452 5.84912C21.6493 5.76418 21.6554 5.68111 21.6636 5.59984M30.7334 5.84912C30.5256 -0.990353 23.5177 -0.625503 21.9106 3.33763M30.7334 5.84912C30.5365 -0.630815 24.2357 -0.643953 22.2071 2.74298M17.9523 3.36857C18.4662 2.48961 20.3121 1.13404 22.2071 2.74298M17.9523 3.36857C19.883 2.51047 21.1776 3.5549 21.483 4.19549L21.9106 3.33763M22.2071 2.74298L21.9106 3.33763M22.2071 2.74298C22.0945 2.9309 21.9951 3.12929 21.9106 3.33763" stroke="black" stroke-width="0.402234"/>
<path d="M31.874 9.90298C31.1768 10.922 29.9522 10.4508 29.483 10.138C31.1813 7.97479 30.9653 5.36332 30.645 4.32798C30.9504 3.68739 32.4908 2.49743 34.4215 3.35553C33.7779 3.51642 33.5575 4.62926 33.5277 5.16557C33.3846 7.36442 32.3656 9.24003 31.874 9.90298Z" fill="#FF9839"/>
<path d="M30.1757 2.65199C32.0707 1.04306 33.9075 2.47657 34.4215 3.35553C32.4908 2.49743 30.9504 3.68739 30.645 4.32798L30.1757 2.65199Z" fill="#FF9839"/>
<path d="M34.4215 3.35553C33.7779 3.51642 33.5575 4.62926 33.5277 5.16557C33.3846 7.36442 32.3656 9.24003 31.874 9.90298C31.1768 10.922 29.9522 10.4508 29.483 10.138C31.1813 7.97479 30.9653 5.36332 30.645 4.32798M34.4215 3.35553C33.9075 2.47657 32.0707 1.04306 30.1757 2.65199L30.645 4.32798M34.4215 3.35553C32.4908 2.49743 30.9504 3.68739 30.645 4.32798" stroke="black" stroke-width="0.402234"/>
<path d="M22.6231 5.96484C22.6827 6.58309 23.3427 7.98495 24.7013 8.19948C24.5261 6.44946 23.2429 5.98055 22.6231 5.96484Z" fill="white"/>
<path d="M27.7628 8.19948C28.2916 8.13989 29.4834 7.63188 29.6622 6.07658C29.0053 6.05504 27.7057 6.44946 27.7628 8.19948Z" fill="white"/>
<path d="M22.6231 5.96484C22.6827 6.58309 23.3427 7.98495 24.7013 8.19948C24.5261 6.44946 23.2429 5.98055 22.6231 5.96484Z" stroke="black" stroke-width="0.402234"/>
<path d="M27.7628 8.19948C28.2916 8.13989 29.4834 7.63188 29.6622 6.07658C29.0053 6.05504 27.7057 6.44946 27.7628 8.19948Z" stroke="black" stroke-width="0.402234"/>
<circle cx="26.1554" cy="5.29034" r="0.893853" fill="#BF161C"/>
<circle cx="26.1517" cy="5.28964" r="0.268156" fill="white"/>
<rect x="25.8836" y="6.45117" width="0.536312" height="0.625697" rx="0.268156" fill="#BF161C"/>
<path d="M11.4745 23.2246H40.5561" stroke="#BF161C" stroke-width="0.506746"/>
</svg>
