<svg width="63" height="70" viewBox="0 0 63 70" fill="none" xmlns="http://www.w3.org/2000/svg">
<path d="M25.558 10.293L36.4765 16.7192H14.6395L25.558 10.293Z" fill="#F3C91B" stroke="black" stroke-width="0.489615"/>
<path d="M18.1464 18.616L16.8642 16.9023H34.7351L33.2926 18.616H18.1464Z" stroke="black" stroke-width="0.489615"/>
<path d="M16.9486 25.7078L15.3965 23.2598H35.7155L34.0928 25.7078H16.9486Z" stroke="black" stroke-width="0.489615"/>
<path d="M17.2959 35.0152L13.9288 31.5879H37.9199L34.237 35.0152H17.2959Z" stroke="black" stroke-width="0.489615"/>
<path d="M13.1852 23.2724L18.1054 18.6211H33.4126L38.6452 23.2724H13.1852Z" fill="#F3C91B" stroke="black" stroke-width="0.489615"/>
<path d="M10.2578 31.5844L16.938 25.709H34.2489L41.5931 31.5844H10.2578Z" fill="#F3C91B" stroke="black" stroke-width="0.489615"/>
<path d="M17.3182 35.0125C17.3064 38.0886 17.3196 44.4324 17.3182 44.813L34.1251 44.813L34.1246 35.0125L17.3182 35.0125Z" stroke="black" stroke-width="0.489615"/>
<path d="M32.7712 44.8098V36.4863H18.8172V44.8098" stroke="black" stroke-width="0.489615"/>
<path d="M49.231 44.8054L2.47279 44.5605L9.93942 54.4752L41.8868 54.4752L49.231 44.8054Z" fill="#FFDC22" stroke="black" stroke-width="0.489615"/>
<circle cx="15.3947" cy="59.7487" r="9.30268" fill="#891616" stroke="black" stroke-width="0.489615"/>
<circle cx="34.736" cy="59.7408" r="9.30268" fill="#891616" stroke="black" stroke-width="0.489615"/>
<path d="M51.3116 57.5423H43.794C43.794 57.5423 44.0025 58.5059 44.0388 59.1335C44.0608 59.5153 44.0388 60.2352 44.0388 60.2352H44.2624L51.7502 60.1128C58.1152 59.1335 62.0321 52.1565 62.5217 47.75H59.7065C59.468 50.3725 57.1656 55.3167 52.1592 57.3823C51.8911 57.4929 51.6017 57.5423 51.3116 57.5423Z" fill="#FFB800" stroke="black" stroke-width="0.489615"/>
<path d="M0.462067 57.5352H6.33744C6.21504 58.1472 6.01479 59.4936 6.1372 60.5952H0.462067L0.462067 57.5352Z" fill="#FFB800" stroke="black" stroke-width="0.489615"/>
<circle cx="15.3951" cy="59.7404" r="2.44807" stroke="#FFD600" stroke-width="0.979229"/>
<circle cx="34.7325" cy="59.7404" r="2.44807" stroke="#FFD600" stroke-width="0.979229"/>
<circle cx="15.3974" cy="59.739" r="0.979229" fill="black"/>
<circle cx="34.7347" cy="59.739" r="0.979229" fill="black"/>
<path d="M23.2237 39.1792C21.2653 38.3224 19.47 39.3426 18.8172 40.1586V36.4863H32.7712V40.1584C31.792 38.5915 29.3031 38.9752 28.4871 39.3017C26.039 35.3845 23.9582 37.547 23.2237 39.1792Z" fill="#FFD600" stroke="black" stroke-width="0.489615"/>
<path d="M11.1092 31.957H40.9757" stroke="#C52026" stroke-width="0.489615"/>
<path d="M13.4358 23.6367H38.4061" stroke="#C52026" stroke-width="0.489615"/>
<path d="M14.5336 17.0195H36.4438" stroke="#C52026" stroke-width="0.489615"/>
<path d="M24.8576 0.214844C26.6988 0.0439162 28.578 0.406698 30.0734 1.41895C31.4927 2.37977 32.5773 3.93486 32.9552 6.20996C32.0576 5.71325 30.749 5.32099 29.4044 5.58594C27.9611 5.87044 26.5142 6.90489 25.5001 9.28613C25.1096 8.29712 24.3597 7.11194 23.2052 6.35352C21.9112 5.50351 20.1336 5.20799 17.8439 6.27441C17.8683 4.63219 18.673 3.23515 19.9162 2.19043C21.2262 1.08959 23.0159 0.38581 24.8576 0.214844Z" fill="#C52026" stroke="#F3C91B" stroke-width="0.336962"/>
<path d="M22.8987 7.57345C21.3823 6.2256 19.2974 6.82216 18.455 7.27846C20.1398 5.40843 22.323 6.47837 23.1935 7.25755C23.3114 7.56092 23.0461 7.59455 22.8987 7.57345Z" fill="#221E1F"/>
<path d="M28.0098 7.53441C29.5262 6.18654 31.6112 6.78311 32.4536 7.23942C30.7687 5.36935 28.5855 6.43931 27.715 7.2185C27.597 7.52187 27.8624 7.55551 28.0098 7.53441Z" fill="#221E1F"/>
<path fill-rule="evenodd" clip-rule="evenodd" d="M27.2184 9.76111C28.103 8.70811 29.5772 7.27598 32.5677 8.81341C32.8766 8.77127 33.8397 8.43008 35.2213 7.40234C34.8843 7.75333 33.9703 8.58589 33.01 9.10821C32.322 9.72598 30.3143 10.7593 27.7871 9.95062C27.5975 9.95766 27.2184 9.92962 27.2184 9.76111ZM27.8924 9.5926C28.3978 8.66346 31.0093 7.76037 31.9991 9.29775C31.4094 9.68386 29.7625 10.2834 27.8924 9.5926Z" fill="black" stroke="black" stroke-width="0.0421202"/>
<path fill-rule="evenodd" clip-rule="evenodd" d="M23.6362 9.74552C22.7516 8.6925 21.2774 7.26036 18.2869 8.7978C17.978 8.75567 17.0149 8.41447 15.6333 7.38672C15.9703 7.73771 16.8843 8.57028 17.8446 9.09261C18.5326 9.71038 20.5403 10.7437 23.0675 9.93503C23.2571 9.94207 23.6362 9.91403 23.6362 9.74552ZM22.9622 9.577C22.4568 8.64785 19.8453 7.74475 18.8555 9.28215C19.4452 9.66826 21.0921 10.2678 22.9622 9.577Z" fill="black" stroke="black" stroke-width="0.0421202"/>
<path d="M19.8691 9.67896C19.5995 9.3757 19.6585 8.8506 19.7217 8.62596C20.6652 8.00258 21.6873 8.52066 22.0803 8.85762C22.0972 9.43045 21.8487 9.75618 21.7223 9.84744L20.9431 10.0369L19.9533 9.8685L19.8691 9.67896Z" fill="#171515" stroke="black" stroke-width="0.0421202"/>
<path d="M31.0316 9.70241C31.3012 9.39914 31.2422 8.87404 31.179 8.6494C30.2355 8.02601 29.2136 8.54409 28.8206 8.88106C28.8037 9.4539 29.0522 9.77963 29.1786 9.87089L29.9577 10.0603L30.9474 9.89195L31.0316 9.70241Z" fill="#171515" stroke="black" stroke-width="0.0421202"/>
<path d="M25.4506 1.00781C24.5029 2.06082 22.102 3.59821 25.4506 6.23072C27.0722 4.84075 28.2516 3.40867 25.4506 1.00781Z" fill="#FBDA03" stroke="#C72929" stroke-width="0.0421202"/>
<circle cx="25.4491" cy="3.63733" r="0.842404" fill="#121212"/>
</svg>
