<svg width="39" height="40" viewBox="0 0 39 40" fill="none" xmlns="http://www.w3.org/2000/svg">
<circle cx="19.4658" cy="20.2039" r="18.7056" fill="#FFE1E1" stroke="black" stroke-width="1.30121"/>
<path d="M14.5948 26.6043L14.955 26.8101L19.6369 28.4906L24.0487 26.8101L24.3488 26.57L26.8699 27.3246L27.8302 29.5538L28.0403 28.6621L28.3104 30.3769L28.7306 28.2505L28.9407 31.8173L30.0211 27.496V29.5538L30.9215 26.1928L31.2516 28.6621L31.6718 24.1693L32.032 25.5412C32.2 24.6358 31.9619 22.0773 31.8219 20.9112L32.5722 22.7632L32.7222 20.0881L32.3321 18.2704L32.9323 19.0935C32.092 16.5693 30.8415 14.9094 30.3213 14.395H30.8015C30.4653 13.2701 30.0411 12.8974 29.8711 12.8516L28.7306 12.4401L29.0607 11.9256L25.7594 9.9365C25.3272 9.66213 24.799 9.41063 24.5889 9.31917L23.3584 8.94191C22.1339 8.39323 21.2476 8.7133 20.9574 8.94191C19.829 9.73758 18.6865 9.36485 18.2563 9.07903C17.5467 8.15994 15.7493 8.74119 14.9023 9.16308C14.8772 9.1756 14.8505 9.18259 14.8225 9.1854C14.4038 9.22758 13.979 9.49506 13.8145 9.62776L9.91292 11.9256L10.2731 12.4401C9.87372 12.4021 9.41286 12.5375 9.07432 12.6776C8.83236 12.7777 8.65119 12.9776 8.5367 13.2131L7.96213 14.395L8.71243 14.4979C8.23224 14.5802 7.61198 15.561 7.36188 16.0412L6.13138 19.1621L6.6716 18.4419L6.40149 20.2253V22.7632L7.1518 21.0141V25.4383L7.36188 24.2722L7.78205 28.5592L8.11219 26.3986L8.95253 29.4852V27.5989L10.033 31.6115L10.2731 28.3191L10.6632 30.4455L10.9934 28.5592L11.2335 29.4852L12.2839 27.2903L14.5948 26.6043Z" fill="#C52026" stroke="black" stroke-width="0.20588"/>
<path d="M13.6358 15.4932C16.0549 12.7081 18.5177 12.1185 20.6173 12.5293C22.7001 12.9369 24.4093 14.327 25.3546 15.4902C25.7431 15.6156 26.0055 15.929 26.1749 16.2598C26.3483 16.5984 26.4313 16.9662 26.4552 17.2041L26.4571 17.2168L26.3692 17.2129L26.4561 17.2168L26.2149 22.8008C26.3977 23.2881 26.2193 23.7958 25.9405 24.2197C25.6569 24.651 25.2586 25.0158 24.9776 25.2207L24.9698 25.2256L24.962 25.2295L21.0558 27.0098C19.9039 27.9048 18.8764 27.6035 18.4884 27.3193L14.4747 25.2275H14.4737C13.5174 24.9017 12.9999 24.4496 12.7501 23.999C12.4993 23.5467 12.5236 23.1061 12.631 22.8223C12.6378 22.804 12.6417 22.7872 12.6417 22.7715V17.2217C12.5296 16.7299 12.6761 16.3354 12.9044 16.0449C13.1242 15.7653 13.4198 15.5818 13.6358 15.4932Z" fill="#EB1F1F" stroke="black" stroke-width="0.173494"/>
<path d="M18.3636 25.291C17.9856 25.4743 17.2467 25.9155 17.3841 26.6576" stroke="black" stroke-width="0.068525"/>
<path d="M20.7345 25.3574C21.0437 25.5178 21.6714 25.9408 21.6164 26.6555" stroke="black" stroke-width="0.068525"/>
<path d="M19.0856 20.8529C18.9023 20.7384 18.4053 20.6055 17.883 20.9904C17.6997 21.0247 17.1271 21.0453 16.3024 20.8529C16.0046 20.7957 15.4022 20.8805 15.3747 21.6777C15.2602 22.5481 15.4503 24.4196 17.1271 24.9419" stroke="black" stroke-width="0.068525"/>
<path d="M19.9447 20.891C20.0822 20.7421 20.5014 20.5543 21.0786 20.9941C21.2504 21.0399 21.7727 21.0834 22.4874 20.891C22.8081 20.788 23.4838 20.7468 23.6213 21.4066C23.7702 22.4374 23.6419 24.5814 21.9376 24.9113" stroke="black" stroke-width="0.068525"/>
<path d="M17.4361 23.4993C17.1612 22.8945 17.7568 22.7204 18.0889 22.709C18.9961 23.3962 20.3681 22.9953 20.9407 22.709C21.6554 22.709 21.6279 23.2358 21.5248 23.4993C19.7381 25.286 18.0545 24.2437 17.4361 23.4993Z" fill="black" stroke="black" stroke-width="0.068525"/>
<path d="M17.9149 22.4382C17.0078 22.1908 16.9185 22.862 16.9872 23.2285C17.9149 25.8398 22.0039 24.5843 22.0039 23.2285C22.0039 22.3351 21.4541 22.3237 21.0761 22.4382C19.7017 23.5653 18.396 22.9078 17.9149 22.4382Z" stroke="black" stroke-width="0.068525"/>
<path d="M21.3185 21.3358C19.7792 23.6723 18.3635 22.3093 17.8481 21.3358C17.7932 21.3907 17.7107 21.6336 17.6763 21.7481C17.5389 21.5878 17.2502 21.2808 17.1952 21.3358C17.1403 21.3908 17.1036 21.6336 17.0922 21.7481L16.4737 21.1641L16.3706 21.8168L15.8209 21.3358C15.1337 24.0296 16.8402 24.7718 17.7794 24.8062C18.2192 24.7513 18.7186 24.9437 18.9133 25.0468C19.0508 25.1842 18.9248 25.1957 18.8446 25.1842L18.5911 25.0828C18.5371 25.0612 18.4739 25.0754 18.4447 25.1257C18.3133 25.352 18.333 25.6842 18.3635 25.837C18.391 26.1119 18.627 26.1577 18.7415 26.1463H19.0827C19.1323 26.1463 19.1655 26.1973 19.1454 26.2426L19.0692 26.414C19.058 26.4392 19.063 26.4686 19.0818 26.4887L19.5662 27.0053L20.1114 26.4921C20.1343 26.4706 20.1396 26.4363 20.1244 26.4089L20.035 26.2481C20.0097 26.2024 20.0427 26.1463 20.0949 26.1463H20.4939C20.6588 26.1188 20.7229 25.9287 20.7344 25.837V25.3724C20.7344 25.3179 20.7127 25.2656 20.6742 25.2271L20.5794 25.1323C20.5306 25.0834 20.4535 25.0798 20.3954 25.1173C20.17 25.2628 20.1199 25.1682 20.1503 25.0468C20.1778 24.9368 20.597 24.8864 20.8031 24.875C23.5519 24.9849 23.5748 22.5613 23.2427 21.3358L22.7273 21.8168C22.7273 21.7068 22.6128 21.3358 22.5555 21.1641L21.937 21.8168C21.9256 21.5878 21.8958 21.1571 21.8683 21.2671C21.8408 21.377 21.559 21.6336 21.4216 21.7481C21.4216 21.6382 21.3529 21.4274 21.3185 21.3358Z" stroke="#FF9839" stroke-width="0.173494"/>
<path d="M19.2564 21.9907C18.8166 21.6883 19.2335 20.1925 19.4969 19.4824C19.9642 20.4445 20.0811 21.8189 19.7375 21.9907C19.6275 22.0457 19.371 22.0136 19.2564 21.9907Z" stroke="black" stroke-width="0.068525"/>
<path d="M21.0084 18.3158C21.2832 18.3158 21.9155 18.2608 22.2453 18.0409C22.5317 17.9836 23.2349 17.9241 23.7572 18.144C24.2268 18.1669 25.0904 17.8829 24.788 16.5635C24.6849 16.6551 24.465 16.8109 24.41 16.7009C24.3757 16.5979 24.3276 16.3711 24.41 16.2886C24.2382 16.2886 23.8809 16.3299 23.8259 16.4948C23.8259 16.3917 23.8534 16.1855 23.9633 16.1855C23.7572 16.2428 23.3105 16.3986 23.1731 16.5635C23.0585 16.4833 22.8295 16.2955 22.8295 16.1855C22.6806 16.4146 22.3622 16.8934 22.2797 16.9758C22.1995 16.8842 22.046 16.6735 22.0735 16.5635C22.0048 16.678 21.8605 16.9346 21.833 17.0446C21.7299 16.9873 21.5169 16.8521 21.4894 16.7697C21.4665 17.1132 21.3382 17.9034 21.0084 18.3158Z" stroke="#FF9839" stroke-width="0.173494"/>
<path fill-rule="evenodd" clip-rule="evenodd" d="M14.9651 16.1981C14.9522 16.1901 14.9378 16.1855 14.9215 16.1855C14.9351 16.1893 14.9496 16.1935 14.9651 16.1981Z" fill="white"/>
<path d="M14.9651 16.1981C15.185 16.2633 15.5834 16.4094 15.7118 16.5635C15.8263 16.4833 16.0554 16.2955 16.0554 16.1855C16.2042 16.4146 16.5226 16.8934 16.6051 16.9759C16.6853 16.8842 16.8387 16.6735 16.8112 16.5635C16.88 16.6781 17.0243 16.9346 17.0517 17.0446C17.1548 16.9873 17.3678 16.8522 17.3953 16.7697C17.4182 17.1133 17.5465 17.9035 17.8763 18.3159C17.6015 18.3159 16.9693 18.2609 16.6394 18.041C16.3531 17.9837 15.6499 17.9242 15.1277 18.1441C14.6581 18.167 13.7946 17.883 14.0969 16.5635C14.2 16.6552 14.4199 16.8109 14.4749 16.701C14.5092 16.5979 14.5573 16.3711 14.4749 16.2886C14.6467 16.2886 15.004 16.3299 15.059 16.4948C15.059 16.407 15.039 16.2443 14.9651 16.1981ZM14.9651 16.1981C14.9522 16.1901 14.9378 16.1855 14.9215 16.1855C14.9351 16.1893 14.9496 16.1935 14.9651 16.1981Z" stroke="#FF9839" stroke-width="0.173494"/>
<path d="M20.6992 19.55C21.0771 18.8743 22.0048 18.0725 24.0321 19.3782C23.3105 20.054 21.6338 21.0345 20.6992 19.55Z" fill="white" stroke="black" stroke-width="0.068525"/>
<path d="M18.3989 19.5499C18.021 18.8742 17.0932 18.0726 15.066 19.3781C15.7876 20.0538 17.4643 21.034 18.3989 19.5499Z" fill="white" stroke="black" stroke-width="0.068525"/>
<path d="M23.3498 18.9704L24.6211 18.2832C24.518 18.4894 24.2981 18.9223 24.2431 19.0048C24.392 19.062 24.7104 19.1972 24.7929 19.2796C24.7013 19.3942 24.4905 19.637 24.3806 19.692L24.7929 20.1387C24.4836 20.2074 23.7827 20.2486 23.4528 19.8638L24.0713 19.3827L23.3154 18.9704" stroke="black" stroke-width="0.068525"/>
<path d="M23.5205 18.8646C22.8104 18.4866 21.1909 18.0811 20.5312 19.483C20.7946 20.1816 21.6651 21.1668 23.7267 20.1016" stroke="black" stroke-width="0.068525"/>
<path d="M15.7537 18.9704L14.4825 18.2832C14.5856 18.4894 14.8054 18.9223 14.8604 19.0048C14.7115 19.062 14.3932 19.1972 14.3107 19.2796C14.4023 19.3942 14.613 19.637 14.723 19.692L14.3107 20.1387C14.6199 20.2074 15.3208 20.2486 15.6506 19.8638L15.0322 19.3827L15.7881 18.9704" stroke="black" stroke-width="0.068525"/>
<path d="M15.5832 18.8646C16.2933 18.4866 17.9126 18.0811 18.5723 19.483C18.3089 20.1816 17.4385 21.1668 15.3771 20.1016" stroke="black" stroke-width="0.068525"/>
<path d="M19.5319 19.1016L18.2226 17.8646H20.8412L19.5319 19.1016Z" fill="#FF9839"/>
<path d="M19.532 18.793L18.7583 18.045H20.3057L19.532 18.793Z" fill="white"/>
<circle cx="13.8971" cy="23.2938" r="0.893365" stroke="black" stroke-width="0.2741"/>
<circle cx="24.8219" cy="23.4363" r="0.893365" stroke="black" stroke-width="0.2741"/>
<circle cx="19.428" cy="15.4303" r="1.40877" fill="#F2F2F2"/>
<path d="M17.6757 15.7696C17.0734 13.3888 21.3625 12.6145 21.2027 15.7696" stroke="black" stroke-width="0.068525"/>
<path d="M18.8106 15.3614L19.4291 14.6055L20.1163 15.3614L19.4291 16.2204L18.8106 15.3614Z" fill="#D40E0E" stroke="black" stroke-width="0.068525"/>
<path d="M16.9878 25.0853C17.5376 24.7555 18.0301 23.4017 18.1904 22.7832L18.7058 23.0237C17.9911 24.8929 17.2398 25.2113 16.9878 25.0853Z" fill="white" stroke="black" stroke-width="0.068525"/>
<path d="M21.9361 25.048C21.3864 24.7182 20.8939 23.3645 20.7335 22.7461L20.2181 22.9866C20.9328 24.8556 21.6842 25.174 21.9361 25.048Z" fill="white" stroke="black" stroke-width="0.068525"/>
<circle cx="16.955" cy="19.4845" r="0.584123" fill="black"/>
<circle cx="22.1788" cy="19.4845" r="0.584123" fill="black"/>
<circle cx="16.9555" cy="19.4795" r="0.377962" fill="#C52026"/>
<circle cx="22.1759" cy="19.4795" r="0.377962" fill="#C52026"/>
</svg>
