<svg width="40" height="39" viewBox="0 0 40 39" fill="none" xmlns="http://www.w3.org/2000/svg">
<circle cx="19.8713" cy="19.5828" r="18.7056" fill="#FFE1E1" stroke="black" stroke-width="1.30121"/>
<path d="M18.3657 12.4848C18.9392 12.8433 20.2153 13.2591 20.7314 12.0547" stroke="#DC0000" stroke-width="0.125783"/>
<path d="M19.6775 28.9473C19.8677 29.1585 20.0705 29.543 19.6142 29.6444" stroke="black" stroke-width="0.127815"/>
<path d="M12.1992 10.8849V9.93419C13.678 7.80049 20.3749 4.86404 26.0789 8.15963V8.9836C27.2234 8.9836 27.8776 9.68437 28.1407 10.1732C28.2113 10.3044 28.2338 10.4541 28.2338 10.6031V12.9955C28.2338 13.1899 28.2928 13.3785 28.381 13.5518C28.9444 14.6587 28.9458 16.1776 28.8676 16.8424C29.0355 17.8498 28.1433 17.8842 27.4357 17.7223C27.1676 17.6609 26.9542 17.4721 26.7785 17.2605C25.6841 15.9427 24.9615 17.3825 24.7052 18.4047C24.691 18.4615 24.6705 18.5155 24.6433 18.5673C23.5888 20.5744 23.4909 23.9612 23.5857 25.7027C23.5971 25.9131 23.6847 26.1107 23.7701 26.3035L23.7748 26.3142C24.1849 27.24 24.2598 29.3966 24.241 30.4685C24.0889 31.6853 23.1636 32.2008 22.72 32.3064C21.858 32.5599 20.375 32.4121 19.7412 32.3064C17.4596 31.3938 17.2273 30.3206 17.3963 29.8981C17.954 28.8841 19.1075 28.8418 19.6145 28.9474C20.5271 29.1502 20.375 30.046 20.1849 30.4685C22.1115 31.5332 22.0017 30.2784 21.7059 29.5178C20.2153 25.3937 17.5072 20.2834 15.7889 18.5895C15.72 18.5216 15.6626 18.4456 15.6021 18.3701C15.3926 18.1091 15.1497 18.0942 14.9721 18.1492C14.8484 18.1875 14.7612 18.2976 14.6918 18.4069C12.5425 21.7949 11.7962 18.9668 11.6923 17.0959C11.7937 15.1692 11.312 14.0115 11.0584 13.6735C10.3486 12.2031 11.5232 11.2018 12.1992 10.8849Z" fill="white"/>
<path d="M12.1992 10.8849V9.93419C13.678 7.80049 20.3749 4.86404 26.0789 8.15963V8.9836M12.1992 10.8849C17.1173 6.67654 23.5015 7.86389 26.0789 8.9836M12.1992 10.8849C11.5232 11.2018 10.3486 12.2031 11.0584 13.6735C11.312 14.0115 11.7937 15.1692 11.6923 17.0959C11.7962 18.9668 12.5425 21.7949 14.6918 18.4069C14.7612 18.2976 14.8484 18.1875 14.9721 18.1492C15.1497 18.0942 15.3926 18.1091 15.6021 18.3701C15.6626 18.4456 15.72 18.5216 15.7889 18.5895C17.5072 20.2834 20.2153 25.3937 21.7059 29.5178C22.0017 30.2784 22.1115 31.5332 20.1849 30.4685C20.375 30.046 20.5271 29.1502 19.6145 28.9474C19.1075 28.8418 17.954 28.8841 17.3963 29.8981C17.2273 30.3206 17.4596 31.3938 19.7412 32.3064C20.375 32.4121 21.858 32.5599 22.72 32.3064C23.1636 32.2008 24.0889 31.6853 24.241 30.4685C24.2598 29.3966 24.1849 27.24 23.7748 26.3142C23.6879 26.118 23.5973 25.917 23.5857 25.7027C23.4909 23.9612 23.5888 20.5744 24.6433 18.5673C24.6705 18.5155 24.691 18.4615 24.7052 18.4047C24.9615 17.3825 25.6841 15.9427 26.7785 17.2605C26.9542 17.4721 27.1676 17.6609 27.4357 17.7223C28.1433 17.8842 29.0355 17.8498 28.8676 16.8424C28.9458 16.1776 28.9444 14.6587 28.381 13.5518C28.2928 13.3785 28.2338 13.1899 28.2338 12.9955V10.6031C28.2338 10.4541 28.2113 10.3044 28.1407 10.1732C27.8776 9.68437 27.2234 8.9836 26.0789 8.9836" stroke="black" stroke-width="0.53579"/>
<path d="M17.7791 23.0512L17.8425 21.4668L18.9199 23.4315C17.9565 23.4822 17.758 23.1991 17.7791 23.0512Z" fill="white" stroke="black" stroke-width="0.267895"/>
<path d="M24.4538 22.7602L23.7998 21.3154L23.5397 23.5412C24.4513 23.2263 24.529 22.8893 24.4538 22.7602Z" fill="white" stroke="black" stroke-width="0.267895"/>
<path d="M23.9895 13.6767C23.0921 13.2559 21.379 12.9448 21.7061 15.0672C22.3759 15.2497 23.7704 15.227 23.9895 13.6767ZM23.9895 13.6767C24.0307 13.6673 24.132 13.6174 24.2077 13.493" stroke="black" stroke-width="0.267895"/>
<path d="M22.7675 13.0781C22.3882 13.1855 21.6394 13.5619 21.679 14.2086" stroke="black" stroke-width="0.130121"/>
<circle cx="22.7853" cy="14.2462" r="0.570396" fill="#2B2B2B"/>
<circle cx="22.7824" cy="14.2407" r="0.25298" stroke="#C52026" stroke-width="0.127815"/>
<path d="M16.0015 14.7505C16.7831 14.159 18.3845 13.4956 18.5366 15.5744C17.9239 15.8913 16.5592 16.1702 16.0015 14.7505ZM16.0015 14.7505C15.9592 14.7504 15.8494 14.725 15.748 14.6236" stroke="black" stroke-width="0.267895"/>
<path d="M17.0786 13.8652C17.4589 13.8864 18.2448 14.0934 18.3462 14.7525" stroke="black" stroke-width="0.130121"/>
<circle cx="17.3348" cy="15.0059" r="0.570396" fill="#2B2B2B"/>
<circle cx="17.3334" cy="15.0044" r="0.25298" stroke="#C52026" stroke-width="0.127815"/>
<path d="M15.4321 14.1782C16.6574 13.2698 19.1333 12.3149 19.2347 15.7626" stroke="black" stroke-width="0.127815"/>
<path d="M20.8815 15.4505C20.797 13.866 21.4012 11.2042 24.4941 13.2323" stroke="black" stroke-width="0.127815"/>
<path d="M18.9555 9.91545C18.5723 10.5676 17.4808 11.6286 19.514 12.6476C20.2136 11.7471 20.6774 10.8718 18.9555 9.91545Z" stroke="black" stroke-width="0.127815"/>
<circle cx="19.2372" cy="11.2959" r="0.449775" transform="rotate(-11.5539 19.2372 11.2959)" fill="#121212"/>
<path d="M13.2039 10.3353C14.049 11.1381 15.8488 12.33 16.0009 9.28787C16.7192 10.1752 18.2952 11.3286 18.8529 8.59072C19.3811 9.54138 20.7035 10.8089 21.7683 8.52734C22.1697 9.62589 23.4994 10.7709 24.8177 8.59072" stroke="black" stroke-width="0.267895"/>
<path d="M18.663 17.0372C19.0433 16.2978 20.2728 15.1612 22.1488 16.5302" stroke="#C52026" stroke-width="0.130121"/>
<path d="M18.7891 17.5402C19.2538 16.9487 20.6017 16.0445 22.2748 17.16" stroke="#C52026" stroke-width="0.130121"/>
<path d="M18.9168 18.3634C19.2548 17.624 20.4125 16.4874 22.3392 17.8563" stroke="#C52026" stroke-width="0.130121"/>
<path d="M19.1048 18.9977C19.6118 18.3217 20.9808 17.2865 22.4004 18.5541" stroke="#C52026" stroke-width="0.130121"/>
<path d="M19.4241 19.5042C19.8466 18.8704 21.0466 17.9197 22.4662 19.1873" stroke="#C52026" stroke-width="0.130121"/>
<path d="M19.5518 20.2027C19.9321 19.5689 21.0349 18.5929 22.4038 19.7591" stroke="#C52026" stroke-width="0.130121"/>
<path d="M19.7401 20.8961C20.0782 20.2623 21.0964 19.2863 22.4654 20.4524" stroke="#C52026" stroke-width="0.130121"/>
<path d="M19.8693 21.4718C20.2073 20.9014 21.2383 20.0268 22.6579 21.0915" stroke="#C52026" stroke-width="0.130121"/>
<path d="M20.0577 22.0419C20.3535 21.5138 21.2746 20.711 22.5928 21.725" stroke="#C52026" stroke-width="0.130121"/>
<path d="M20.3112 22.7354C20.5859 22.1861 21.4393 21.3411 22.6562 22.3551" stroke="#C52026" stroke-width="0.130121"/>
<path d="M20.6273 24.0023C20.923 23.5798 21.7681 22.9122 22.7821 23.622" stroke="#C52026" stroke-width="0.130121"/>
<path d="M22.8456 23.0487C22.4019 22.7318 21.2992 22.3642 20.4372 23.429" stroke="#C52026" stroke-width="0.130121"/>
<path d="M20.7551 24.639C21.0086 24.2165 21.7818 23.5489 22.8465 24.2588" stroke="#C52026" stroke-width="0.130121"/>
<path d="M21.3246 25.9022C21.4725 25.5642 21.9837 25.0149 22.8457 25.5219" stroke="#C52026" stroke-width="0.130121"/>
<path d="M21.0085 25.3382C21.2831 24.9157 22.0479 24.2481 22.9098 24.958" stroke="#C52026" stroke-width="0.130121"/>
<path d="M21.5179 26.4744C21.6869 26.1575 22.2277 25.6758 23.0389 26.2842" stroke="#C52026" stroke-width="0.130121"/>
<path d="M21.8319 27.8708C21.9376 27.5751 22.3516 27.0976 23.1629 27.5539" stroke="#C52026" stroke-width="0.130121"/>
<path d="M21.7059 27.1729C21.8538 26.8982 22.3396 26.4503 23.1002 26.856" stroke="#C52026" stroke-width="0.130121"/>
<path d="M22.0874 28.5675C22.2353 28.2928 22.6831 27.8576 23.2916 28.314" stroke="#C52026" stroke-width="0.130121"/>
<path d="M22.657 30.3425C22.826 30.1946 23.2148 29.9875 23.4176 30.3425" stroke="#C52026" stroke-width="0.130121"/>
<path d="M22.4032 29.6439C22.5511 29.4749 22.9356 29.2383 23.2905 29.6439" stroke="#C52026" stroke-width="0.130121"/>
<path d="M22.2772 29.0713C22.4673 28.8812 22.949 28.5897 23.3546 28.9446" stroke="#C52026" stroke-width="0.130121"/>
<path d="M11.1843 11.7096C11.5999 11.6502 12.316 11.8801 12.0711 13.2021C12.0399 13.3703 12.112 13.5425 12.2393 13.6567C12.5954 13.9764 13.0187 14.6083 12.8955 15.5122" stroke="black" stroke-width="0.127815"/>
<path d="M27.4753 9.42723C27.0265 9.38643 26.3452 9.69631 27.0752 11.2244C27.1231 11.3247 27.1038 11.4443 27.0391 11.5347C26.7813 11.895 26.5115 12.6281 26.9051 13.5468" stroke="black" stroke-width="0.127815"/>
<path d="M18.3656 12.7016C18.8674 13.0601 20.0431 13.4759 20.7313 12.2715" stroke="#C52026" stroke-width="0.169157"/>
</svg>
