<svg width="40" height="40" viewBox="0 0 40 40" fill="none" xmlns="http://www.w3.org/2000/svg">
<circle cx="20.1373" cy="19.866" r="18.7056" fill="#FFE1E1" stroke="black" stroke-width="1.30121"/>
<path d="M3.93394 22.769C3.29536 24.7987 5.83444 24.755 7.18381 24.4795H12.0016C14.6471 25.5285 15.3655 23.7763 15.394 22.769V19.2341C15.1432 17.1587 13.541 16.7159 12.7713 16.7539C12.2924 16.8907 11.4315 16.5639 11.0609 16.3834C10.0118 15.8588 8.93229 16.1648 8.52368 16.3834C7.8395 16.5658 6.69919 16.7064 6.21456 16.7539C4.43569 16.3434 3.85793 18.2363 3.79141 19.2341L3.93394 22.769Z" fill="#00450F" stroke="#191717" stroke-width="0.114984"/>
<path d="M7.95341 24.7356C6.99556 24.5988 6.26196 22.6261 6.01489 21.6568C5.64999 21.9761 5.29271 21.2197 5.15968 20.8016C4.81758 19.7753 5.49226 19.7658 5.87237 19.8893C6.16885 19.4788 5.88187 19.0151 5.70132 18.8345C6.04341 18.8117 6.12893 18.1979 6.12892 17.8938L6.27146 17.9508C6.27146 17.9508 7.24073 18.0363 7.95341 16.8105C8.79724 17.0386 9.63536 16.8105 9.94895 16.668C10.4279 17.1697 11.3838 17.1431 11.8019 17.0671C12.2353 17.7741 13.0088 18.1979 13.3414 18.3214C13.3414 18.6635 13.6454 18.9581 13.7975 19.0626C13.615 19.2451 13.4174 20.2029 13.3414 20.4025C13.6513 20.129 14.2585 19.8241 14.3075 20.6854C14.3118 20.7611 14.2923 20.8367 14.255 20.9026C13.9514 21.4397 13.3916 22.2137 13.1988 21.6568C12.5146 24.4392 11.4123 24.8687 10.9467 24.7356C9.85202 25.6935 8.49506 25.1347 7.95341 24.7356Z" fill="#DF0303"/>
<path d="M6.01489 21.6568C6.26196 22.6261 6.99556 24.5988 7.95341 24.7356C8.49506 25.1347 9.85202 25.6935 10.9467 24.7356C11.4123 24.8687 12.5146 24.4392 13.1988 21.6568M6.01489 21.6568L5.87237 19.8893M6.01489 21.6568C5.64999 21.9761 5.29271 21.2197 5.15968 20.8016C4.81758 19.7753 5.49226 19.7658 5.87237 19.8893M13.1988 21.6568L13.3414 20.4025M13.1988 21.6568C13.3916 22.2137 13.9514 21.4397 14.255 20.9026C14.2923 20.8367 14.3118 20.7611 14.3075 20.6854C14.2585 19.8241 13.6513 20.129 13.3414 20.4025M5.87237 19.8893C6.16885 19.4788 5.88187 19.0151 5.70132 18.8345C6.04341 18.8117 6.12893 18.1979 6.12892 17.8938L6.27146 17.9508C6.27146 17.9508 7.24073 18.0363 7.95341 16.8105C8.79724 17.0386 9.63536 16.8105 9.94895 16.668C10.4279 17.1697 11.3838 17.1431 11.8019 17.0671C12.2353 17.7741 13.0088 18.1979 13.3414 18.3214C13.3414 18.6635 13.6454 18.9581 13.7975 19.0626C13.615 19.2451 13.4174 20.2029 13.3414 20.4025" stroke="black" stroke-width="0.114984"/>
<path d="M9.40738 19.4338L9.80649 18.9492L10.2341 19.4338H9.40738Z" fill="#FBDA03" stroke="black" stroke-width="0.057492"/>
<path d="M8.46679 22.2274C7.78261 22.7063 7.25046 22.3319 7.06992 22.0849C7.17537 22.8442 7.92285 22.7192 8.36538 22.5307C8.43358 22.5016 8.49167 22.4541 8.55481 22.4153C8.84018 22.2398 9.35983 22.2702 9.6071 22.3128V22.0849C9.19659 21.9024 8.67585 22.1039 8.46679 22.2274Z" fill="black" stroke="black" stroke-width="0.057492"/>
<path d="M11.0896 22.2273C11.7738 22.706 12.3059 22.3318 12.4865 22.0848C12.381 22.8438 11.6335 22.7189 11.191 22.5305C11.1228 22.5014 11.0647 22.4539 11.0015 22.4151C10.7162 22.2397 10.1965 22.2701 9.94927 22.3127V22.0848C10.3598 21.9025 10.8805 22.1038 11.0896 22.2273Z" fill="black" stroke="black" stroke-width="0.057492"/>
<path d="M9.37898 21.7689C9.53149 21.7689 9.72479 21.651 9.34462 21.6093C9.29046 21.6034 9.26342 21.6698 9.30478 21.7053L9.37898 21.7689Z" fill="black"/>
<path d="M9.17943 20.8281C8.75182 20.9707 8.32426 21.8829 9.37898 21.7689M9.37898 21.7689C9.53149 21.7689 9.72479 21.651 9.34462 21.6093C9.29046 21.6034 9.26342 21.6698 9.30478 21.7053L9.37898 21.7689Z" stroke="black" stroke-width="0.057492"/>
<path d="M10.1071 21.7982C9.95466 21.7982 9.76138 21.6803 10.1415 21.6386C10.1956 21.6327 10.2227 21.6991 10.1813 21.7346L10.1071 21.7982Z" fill="black"/>
<path d="M10.3067 20.8574C10.7342 21 11.2032 21.8552 10.1071 21.7982M10.1071 21.7982C9.95466 21.7982 9.76138 21.6803 10.1415 21.6386C10.1956 21.6327 10.2227 21.6991 10.1813 21.7346L10.1071 21.7982Z" stroke="black" stroke-width="0.057492"/>
<path d="M9.32206 19.8286C9.19853 19.3725 8.64358 18.7225 7.41205 19.7716" stroke="black" stroke-width="0.057492"/>
<path d="M9.32207 19.8286C9.20804 19.42 8.64929 18.8479 7.32654 19.8286C7.85868 20.2751 9.00279 20.9003 9.32207 19.8286Z" fill="white" stroke="black" stroke-width="0.057492"/>
<path d="M10.205 19.8286C10.3286 19.3725 10.8835 18.7225 12.1151 19.7716" stroke="black" stroke-width="0.057492"/>
<path d="M10.205 19.8286C10.3191 19.42 10.8778 18.8479 12.2006 19.8286C11.6684 20.2751 10.5243 20.9003 10.205 19.8286Z" fill="white" stroke="black" stroke-width="0.057492"/>
<path d="M9.12247 18.946C8.59793 18.3987 7.53554 18.927 7.06992 19.2596C7.82252 18.1192 8.92291 18.4424 9.37903 18.7466L9.12247 18.946Z" fill="#171717" stroke="black" stroke-width="0.057492"/>
<path d="M10.4622 18.9498C10.9867 18.4026 12.0491 18.9308 12.5147 19.2634C11.7621 18.1231 10.6617 18.4463 10.2056 18.7505L10.4622 18.9498Z" fill="black" stroke="black" stroke-width="0.057492"/>
<circle cx="5.21698" cy="22.8192" r="0.816717" fill="#0A0077" stroke="#FBDA03" stroke-width="0.419117"/>
<circle cx="13.8828" cy="23.1649" r="0.816717" fill="#0A0077" stroke="#FBDA03" stroke-width="0.419117"/>
<path d="M8.43802 22.8368C8.82343 23.2802 9.88756 23.9009 11.0607 22.8368C10.9667 22.6612 10.5813 22.35 9.79167 22.5106C9.42506 22.4269 8.64107 22.3751 8.43802 22.8368Z" fill="#840000" stroke="black" stroke-width="0.057492"/>
<circle cx="8.60938" cy="19.8331" r="0.456122" fill="#1E1E1E"/>
<circle cx="10.9468" cy="19.8331" r="0.456122" fill="#1E1E1E"/>
<circle cx="9.92052" cy="17.7241" r="0.513138" fill="#FBDA03" stroke="black" stroke-width="0.114984"/>
<path d="M9.06526 22.8553L8.75168 22.8553C8.80869 22.5417 9.54039 22.5417 9.77795 22.6272C10.3253 22.4447 10.6522 22.7032 10.7472 22.8553H9.32183H9.06526Z" fill="white" stroke="black" stroke-width="0.0229968"/>
<path d="M9.52142 22.5703V22.8554" stroke="black" stroke-width="0.0229968"/>
<path d="M9.77777 22.625V22.8531" stroke="black" stroke-width="0.0229968"/>
<path d="M10.0059 22.5996V22.8562" stroke="black" stroke-width="0.0229968"/>
<path d="M8.78024 22.9121C9.04692 23.1592 9.94133 23.5392 10.6798 22.9121H8.78024Z" fill="white" stroke="black" stroke-width="0.0229968"/>
<path d="M10.7759 22.8398C9.85775 23.5909 9.02496 23.1527 8.72333 22.8398C8.88223 22.5138 9.49579 22.5505 9.78271 22.6095C10.4007 22.4961 10.7023 22.7158 10.7759 22.8398Z" stroke="black" stroke-width="0.0445099"/>
<path d="M9.2175 23.3693L9.06546 22.6281L9.32203 22.5996L9.2175 23.3693Z" fill="white" stroke="black" stroke-width="0.057492"/>
<path d="M10.3005 23.3693L10.1484 22.5996L10.3765 22.6281L10.3005 23.3693Z" fill="white" stroke="black" stroke-width="0.057492"/>
<path d="M9.49286 22.9121V23.2257" stroke="black" stroke-width="0.0229968"/>
<path d="M9.77777 22.9121V23.2542" stroke="black" stroke-width="0.0229968"/>
<path d="M10.0059 22.9121V23.2257" stroke="black" stroke-width="0.0229968"/>
<path d="M5.55936 20.3672C5.51185 20.4376 5.44533 20.6388 5.55936 20.8803" stroke="black" stroke-width="0.057492"/>
<path d="M13.7692 20.623C13.8072 20.7466 13.8433 21.0336 13.6837 21.1932" stroke="black" stroke-width="0.057492"/>
<path d="M25.0223 22.7651C24.3837 24.7948 26.9228 24.7511 28.2721 24.4756H33.0899C35.7354 25.5246 36.4538 23.7724 36.4823 22.7651V19.2301C36.2315 17.1548 34.6293 16.712 33.8596 16.75C33.3807 16.8868 32.5198 16.56 32.1492 16.3795C31.1001 15.8549 30.0206 16.1609 29.612 16.3795C28.9278 16.5619 27.7875 16.7025 27.3029 16.75C25.524 16.3395 24.9462 18.2324 24.8797 19.2301L25.0223 22.7651Z" fill="#00450F" stroke="#191717" stroke-width="0.114984"/>
<path d="M29.0419 24.7317C28.084 24.5949 27.3504 22.6222 27.1034 21.6529C26.7385 21.9722 26.3812 21.2158 26.2481 20.7977C25.9061 19.7714 26.5807 19.7619 26.9608 19.8854C27.2573 19.4749 26.9703 19.0112 26.7898 18.8306C27.1319 18.8078 27.2174 18.194 27.2174 17.8899L27.3599 17.9469C27.3599 17.9469 28.3292 18.0324 29.0419 16.8066C29.8857 17.0347 30.7238 16.8066 31.0374 16.6641C31.5163 17.1658 32.4723 17.1392 32.8904 17.0632C33.3237 17.7702 34.0972 18.194 34.4298 18.3175C34.4298 18.6596 34.7339 18.9542 34.886 19.0587C34.7035 19.2412 34.5059 20.199 34.4298 20.3986C34.7398 20.1251 35.347 19.8202 35.3959 20.6815C35.4002 20.7572 35.3807 20.8328 35.3434 20.8987C35.0399 21.4358 34.48 22.2097 34.2873 21.6529C33.6031 24.4352 32.5008 24.8648 32.0352 24.7317C30.9405 25.6896 29.5835 25.1308 29.0419 24.7317Z" fill="#DF0303"/>
<path d="M27.1034 21.6529C27.3504 22.6222 28.084 24.5949 29.0419 24.7317C29.5835 25.1308 30.9405 25.6896 32.0352 24.7317C32.5008 24.8648 33.6031 24.4352 34.2873 21.6529M27.1034 21.6529L26.9608 19.8854M27.1034 21.6529C26.7385 21.9722 26.3812 21.2158 26.2481 20.7977C25.9061 19.7714 26.5807 19.7619 26.9608 19.8854M34.2873 21.6529L34.4298 20.3986M34.2873 21.6529C34.48 22.2097 35.0399 21.4358 35.3434 20.8987C35.3807 20.8328 35.4002 20.7572 35.3959 20.6815C35.347 19.8202 34.7398 20.1251 34.4298 20.3986M26.9608 19.8854C27.2573 19.4749 26.9703 19.0112 26.7898 18.8306C27.1319 18.8078 27.2174 18.194 27.2174 17.8899L27.3599 17.9469C27.3599 17.9469 28.3292 18.0324 29.0419 16.8066C29.8857 17.0347 30.7238 16.8066 31.0374 16.6641C31.5163 17.1658 32.4723 17.1392 32.8904 17.0632C33.3237 17.7702 34.0972 18.194 34.4298 18.3175C34.4298 18.6596 34.7339 18.9542 34.886 19.0587C34.7035 19.2412 34.5059 20.199 34.4298 20.3986" stroke="black" stroke-width="0.114984"/>
<path d="M30.4958 19.4299L30.8949 18.9453L31.3225 19.4299H30.4958Z" fill="#FBDA03" stroke="black" stroke-width="0.057492"/>
<path d="M30.4674 21.765C30.6199 21.765 30.8132 21.6471 30.4331 21.6054C30.3789 21.5995 30.3519 21.6659 30.3932 21.7014L30.4674 21.765Z" fill="black"/>
<path d="M30.2679 20.8242C29.8403 20.9668 29.4127 21.879 30.4674 21.765M30.4674 21.765C30.6199 21.765 30.8132 21.6471 30.4331 21.6054C30.3789 21.5995 30.3519 21.6659 30.3932 21.7014L30.4674 21.765Z" stroke="black" stroke-width="0.057492"/>
<path d="M31.1955 21.7943C31.0431 21.7943 30.8498 21.6764 31.2299 21.6347C31.2841 21.6288 31.3111 21.6952 31.2697 21.7307L31.1955 21.7943Z" fill="black"/>
<path d="M31.3951 20.8535C31.8226 20.9961 32.2916 21.8513 31.1955 21.7943M31.1955 21.7943C31.0431 21.7943 30.8498 21.6764 31.2299 21.6347C31.2841 21.6288 31.3111 21.6952 31.2697 21.7307L31.1955 21.7943Z" stroke="black" stroke-width="0.057492"/>
<path d="M30.41 19.8266C30.2865 19.3705 29.7315 18.7205 28.5 19.7696" stroke="black" stroke-width="0.057492"/>
<path d="M30.41 19.8266C30.296 19.418 29.7372 18.846 28.4145 19.8266C28.9466 20.2732 30.0907 20.8984 30.41 19.8266Z" fill="white" stroke="black" stroke-width="0.057492"/>
<path d="M31.2937 19.8266C31.4173 19.3705 31.9722 18.7205 33.2037 19.7696" stroke="black" stroke-width="0.057492"/>
<path d="M31.2937 19.8266C31.4077 19.418 31.9665 18.846 33.2892 19.8266C32.7571 20.2732 31.613 20.8984 31.2937 19.8266Z" fill="white" stroke="black" stroke-width="0.057492"/>
<path d="M30.2108 18.838C29.6863 18.4077 28.6239 18.823 28.1583 19.0845C28.9109 18.1879 30.0113 18.4421 30.4674 18.6812L30.2108 18.838Z" fill="#171717" stroke="black" stroke-width="0.057492"/>
<path d="M31.5506 18.8419C32.0751 18.4116 33.1375 18.8269 33.6031 19.0884C32.8505 18.1918 31.7501 18.446 31.294 18.6851L31.5506 18.8419Z" fill="black" stroke="black" stroke-width="0.057492"/>
<circle cx="26.3054" cy="22.8153" r="0.816717" fill="#0A0077" stroke="#FBDA03" stroke-width="0.419117"/>
<circle cx="34.9713" cy="23.161" r="0.816717" fill="#0A0077" stroke="#FBDA03" stroke-width="0.419117"/>
<path d="M29.5265 22.8329C29.9119 23.2763 30.976 23.8969 32.1492 22.8329C32.0552 22.6573 31.6698 22.3461 30.8801 22.5067C30.5135 22.423 29.7295 22.3711 29.5265 22.8329Z" fill="#840000" stroke="black" stroke-width="0.057492"/>
<circle cx="29.6979" cy="19.8292" r="0.456122" fill="#1E1E1E"/>
<circle cx="32.0353" cy="19.8292" r="0.456122" fill="#1E1E1E"/>
<circle cx="31.009" cy="17.7202" r="0.513138" fill="#FBDA03" stroke="black" stroke-width="0.114984"/>
<path d="M30.1537 22.8514L29.8401 22.8514C29.8971 22.5378 30.6288 22.5378 30.8664 22.6233C31.4137 22.4408 31.7406 22.6993 31.8357 22.8514H30.4103H30.1537Z" fill="white" stroke="black" stroke-width="0.0229968"/>
<path d="M30.6098 22.5664V22.8515" stroke="black" stroke-width="0.0229968"/>
<path d="M30.8662 22.6211V22.8492" stroke="black" stroke-width="0.0229968"/>
<path d="M31.0944 22.5957V22.8523" stroke="black" stroke-width="0.0229968"/>
<path d="M29.8687 22.9082C30.1354 23.1553 31.0298 23.5353 31.7683 22.9082H29.8687Z" fill="white" stroke="black" stroke-width="0.0229968"/>
<path d="M31.8643 22.8359C30.9461 23.587 30.1133 23.1488 29.8117 22.8359C29.9706 22.5099 30.5842 22.5465 30.8711 22.6056C31.4891 22.4922 31.7907 22.7119 31.8643 22.8359Z" stroke="black" stroke-width="0.0445099"/>
<path d="M30.3059 23.3654L30.1539 22.6242L30.4105 22.5957L30.3059 23.3654Z" fill="white" stroke="black" stroke-width="0.057492"/>
<path d="M31.3889 23.3654L31.2368 22.5957L31.4649 22.6242L31.3889 23.3654Z" fill="white" stroke="black" stroke-width="0.057492"/>
<path d="M30.5813 22.9082V23.2218" stroke="black" stroke-width="0.0229968"/>
<path d="M30.8662 22.9082V23.2503" stroke="black" stroke-width="0.0229968"/>
<path d="M31.0944 22.9082V23.2218" stroke="black" stroke-width="0.0229968"/>
<path d="M26.5963 20.4258C26.5488 20.4962 26.4823 20.6974 26.5963 20.9389" stroke="black" stroke-width="0.057492"/>
<path d="M34.9998 20.5352C35.0378 20.6587 35.0739 20.9457 34.9143 21.1053" stroke="black" stroke-width="0.057492"/>
<path d="M12.3819 16.8131C12.4257 18.396 12.829 22.8434 13.3947 25.067C15.4315 25.9943 24.5182 25.7266 28.3964 25.067C28.3307 24.4111 28.2139 19.1496 28.15 16.8131C29.6556 4.12173 10.5751 7.1459 12.3819 16.8131Z" fill="#B46146" stroke="black" stroke-width="0.114984"/>
<path d="M21.0209 12.582C21.2065 12.6187 21.3896 12.7183 21.5648 12.8896C21.909 13.2261 22.2262 13.844 22.4818 14.835C23.0377 14.8489 23.8384 15.1255 24.4731 15.7178C25.11 16.3122 25.5776 17.2233 25.4682 18.499C25.7234 18.3807 26.0035 18.3236 26.2484 18.3418C26.5232 18.3623 26.7663 18.4808 26.8647 18.7324C26.9612 18.9797 26.9087 19.3346 26.6518 19.8057C26.3954 20.2754 25.9289 20.8717 25.1742 21.6143C25.1601 23.4476 23.56 25.1428 21.6566 25.6016C20.6983 25.8325 19.6595 25.751 18.7035 25.2158C17.751 24.6825 16.8853 23.7016 16.2621 22.1416C15.405 21.6627 14.7525 20.8108 14.5961 20.1025C14.5172 19.7449 14.5627 19.4113 14.7895 19.1875C15.0055 18.9744 15.3713 18.8763 15.9027 18.9316C15.8249 18.2822 15.8866 17.3346 16.3246 16.5117C16.7766 15.6629 17.6249 14.9522 19.1098 14.8369C19.1733 14.3934 19.3412 13.9272 19.5746 13.5342C19.8155 13.1288 20.1299 12.794 20.477 12.6465C20.6515 12.5724 20.8353 12.5454 21.0209 12.582Z" fill="#0033B7" stroke="black" stroke-width="0.114984"/>
<path d="M22.4037 11.2148C22.4819 11.649 22.6648 12.2503 23.0287 12.7285C23.2308 12.9942 23.4903 13.223 23.8187 13.3633C24.1306 13.4965 24.5019 13.5471 24.9418 13.4775C24.9164 13.8757 24.9817 14.4204 25.2152 14.8701C25.3396 15.1096 25.5128 15.3244 25.7465 15.4746C25.9614 15.6127 26.2252 15.6924 26.5443 15.6914L25.5951 18.1152C25.5302 16.8693 25.0388 16.0528 24.4359 15.5332C23.8077 14.9919 23.0633 14.7768 22.5687 14.7256C22.3127 13.7326 21.9862 13.1115 21.6273 12.7725C21.4448 12.6001 21.2532 12.4996 21.059 12.4619C20.8646 12.4242 20.6707 12.4496 20.4857 12.5225C20.1175 12.6676 19.7796 13.0012 19.517 13.4082C19.262 13.8034 19.075 14.2743 18.9974 14.7256C17.6504 14.8791 16.8199 15.5326 16.3383 16.334C15.8835 17.0908 15.7434 17.9761 15.7631 18.6895L14.1215 17.1523C14.1822 17.0988 14.2309 17.0121 14.266 16.8945C14.3146 16.7316 14.3431 16.4967 14.3431 16.1748V16.1533C14.6012 16.1743 14.9544 16.0778 15.2982 15.8408C15.6751 15.5809 16.0457 15.1506 16.2777 14.5127L16.2816 14.5039V14.4932C16.2816 14.334 16.2679 14.0804 16.2289 13.834C16.2094 13.7108 16.1836 13.588 16.1488 13.4795C16.1324 13.4286 16.1133 13.3797 16.0922 13.335C16.1674 13.3783 16.262 13.4312 16.3715 13.4805C16.7109 13.6332 17.2014 13.7686 17.6918 13.5635L17.7894 13.5186L17.7982 13.5127C18.0346 13.3341 18.3803 13.0162 18.6537 12.6416C18.9009 12.3029 19.0941 11.9083 19.0824 11.5225C19.4555 11.7517 20.021 11.9901 20.6195 12.0215C21.2414 12.0541 21.8982 11.8634 22.4037 11.2148Z" fill="#FF9839" stroke="black" stroke-width="0.114984"/>
<path d="M18.7372 21.2227C18.7859 21.3917 19.2005 21.7413 19.3882 21.8485C20.3574 21.9911 21.6593 21.82 21.8113 21.649L22.1115 21.2123C22.1149 21.2073 22.1228 21.2102 22.1221 21.2161C22.1035 21.3739 22.0815 21.649 22.1249 21.649C22.1819 21.649 22.6665 20.9648 22.6665 20.9648C22.6665 20.8188 22.7141 21.459 22.8091 21.649C22.9459 21.6262 23.2082 21.1834 23.3222 20.9648C23.4134 21.1017 23.3602 21.706 23.3222 21.9911C23.4134 21.7858 24.0444 21.6015 24.3485 21.535C24.263 22.3332 23.6928 22.7608 23.6643 22.8463C23.6415 22.9147 23.7308 23.0839 23.7783 23.1599C23.4591 23.1599 22.9991 23.3119 22.8091 23.388L23.0657 23.8726C23.0657 23.8726 22.5905 23.616 22.353 23.616V24.1292C22.2169 23.8842 21.5872 23.9944 21.2576 24.1123C21.2275 24.1231 21.1998 24.139 21.1744 24.1584L20.728 24.4998C20.6008 24.2453 20.2173 24.2504 20.0037 24.2906C19.9733 24.2963 19.9444 24.3072 19.9168 24.321L19.5592 24.4998V23.8726H18.5614L18.932 23.388L18.0483 23.616V23.1599C17.6087 23.3553 17.0018 22.1281 16.8726 21.8797C16.8617 21.8691 16.8544 21.8587 16.851 21.8485C16.8428 21.824 16.851 21.8382 16.8726 21.8797C17.0089 22.0124 17.6964 22.1773 18.0483 22.2477C17.9128 22.067 17.8846 21.6538 17.8788 21.5465C17.8778 21.5426 17.8773 21.5387 17.8773 21.535C17.8773 21.5113 17.8773 21.5183 17.8788 21.5465C17.9265 21.7313 19.0716 22.1027 18.932 21.9911C18.8128 21.8957 18.7534 21.3615 18.7372 21.2227C18.7341 21.212 18.7325 21.202 18.7325 21.1929C18.7325 21.1835 18.734 21.1956 18.7372 21.2227Z" fill="#FF9839"/>
<path d="M19.3882 21.8485C19.1886 21.7345 18.7325 21.3464 18.7325 21.1929C18.7325 21.1359 18.7895 21.877 18.932 21.9911C19.0746 22.1051 17.8773 21.7153 17.8773 21.535C17.8773 21.4209 17.8772 22.0196 18.0483 22.2477C17.6682 22.1716 16.8966 21.9854 16.851 21.8485C16.794 21.6775 17.5352 23.388 18.0483 23.1599V23.616L18.932 23.388L18.5614 23.8726H19.5592V24.4998L19.9168 24.321C19.9444 24.3072 19.9733 24.2963 20.0037 24.2906C20.2173 24.2504 20.6008 24.2453 20.728 24.4998L21.1744 24.1584C21.1998 24.139 21.2275 24.1231 21.2576 24.1123C21.5872 23.9944 22.2169 23.8842 22.353 24.1292V23.616C22.5905 23.616 23.0657 23.8726 23.0657 23.8726L22.8091 23.388C22.9991 23.3119 23.4591 23.1599 23.7783 23.1599C23.7308 23.0839 23.6415 22.9147 23.6643 22.8463C23.6928 22.7608 24.263 22.3332 24.3485 21.535C24.0444 21.6015 23.4134 21.7858 23.3222 21.9911C23.3602 21.706 23.4134 21.1017 23.3222 20.9648C23.2082 21.1834 22.9459 21.6262 22.8091 21.649C22.7141 21.459 22.6665 20.8188 22.6665 20.9648C22.6665 20.9648 22.1819 21.649 22.1249 21.649C22.0815 21.649 22.1035 21.3739 22.1221 21.2161C22.1228 21.2102 22.1149 21.2073 22.1115 21.2123L21.8113 21.649C21.6593 21.82 20.3574 21.9911 19.3882 21.8485Z" stroke="#FF9839" stroke-width="0.086238"/>
<path d="M20.0151 18.939V19.1946C20.0151 19.2264 20.0408 19.2521 20.0726 19.2521H21.2689C21.3007 19.2521 21.3264 19.2264 21.3264 19.1946V18.939C21.3264 18.9073 21.3007 18.8815 21.2689 18.8815H21.063C21.031 18.8815 21.0005 18.8682 20.9787 18.8448L20.6927 18.5367C20.6671 18.5092 20.6225 18.5132 20.6022 18.5448L20.4196 18.8287C20.3985 18.8616 20.362 18.8815 20.3229 18.8815H20.0726C20.0408 18.8815 20.0151 18.9073 20.0151 18.939Z" fill="#FBDA03" stroke="black" stroke-width="0.057492"/>
<path d="M20.4429 21.1933V19.4258H21.0131V21.1933C20.8534 21.5582 20.5664 21.3453 20.4429 21.1933Z" fill="#FBDA03" stroke="black" stroke-width="0.057492"/>
<path d="M19.2738 18.058C19.6387 18.3545 19.844 18.1815 19.901 18.058C19.9466 17.8984 19.882 17.7444 19.844 17.6874L19.5589 17.6019V17.2883H19.3024C19.2339 17.3111 19.1408 16.8417 19.1028 16.6041C18.9753 16.5191 18.6895 16.8565 18.5357 17.072C18.5178 17.0971 18.4835 17.1043 18.4573 17.088L18.2761 16.9747L18.0743 17.2521C18.0589 17.2734 18.0309 17.2815 18.0066 17.2714C17.8106 17.1895 17.7433 17.135 17.7344 17.1172L17.5064 17.6019C17.1871 16.9633 17.5254 16.2145 17.7344 15.9199C16.6169 16.376 16.8697 17.2313 17.1358 17.6019C17.1586 18.058 17.5444 18.096 17.7344 18.058C18.3502 17.465 19.0173 17.8109 19.2738 18.058Z" fill="#FF9839" stroke="#FF9839" stroke-width="0.086238"/>
<path d="M21.9257 17.9427C21.5608 18.2392 21.3556 18.0662 21.2985 17.9427C21.253 17.7831 21.3175 17.6291 21.3555 17.5721L21.6406 17.4866V17.173H21.8971C21.9656 17.1958 22.0587 16.7264 22.0967 16.4888C22.2241 16.4039 22.51 16.7412 22.6637 16.9567C22.6817 16.9819 22.716 16.989 22.7422 16.9727L22.9233 16.8594L23.1251 17.1368C23.1406 17.1581 23.1685 17.1662 23.1928 17.1561C23.3888 17.0743 23.4561 17.0198 23.465 17.002L23.693 17.4866C24.0123 16.848 23.674 16.0993 23.465 15.8047C24.5824 16.2608 24.3297 17.116 24.0636 17.4866C24.0408 17.9427 23.655 17.9807 23.465 17.9427C22.8493 17.3498 22.1822 17.6956 21.9257 17.9427Z" fill="#FF9839" stroke="#FF9839" stroke-width="0.086238"/>
<path d="M18.5615 15.8052C17.4782 15.0923 15.3116 17.0595 17.6492 18.4849M17.6492 18.4849C17.9723 18.3044 18.7439 18.0516 19.1316 18.4849M17.6492 18.4849C16.68 18.3804 15.283 18.6162 17.4496 20.395M17.4496 20.395C17.8202 20.5186 18.7154 20.6915 19.3311 20.395M17.4496 20.395C16.4804 20.6801 15.6938 22.9607 19.1316 24.8707C19.2799 24.9531 19.6468 25.0855 20.0539 25.0449C20.1646 25.0339 20.2428 24.9311 20.214 24.8236C20.181 24.7004 20.1182 24.594 20.0109 24.6164C19.9213 24.635 19.9186 24.7546 19.9771 24.8249L20.0153 24.8707" stroke="white" stroke-width="0.114984"/>
<path d="M22.8942 15.7466C23.9774 15.0337 26.1439 17.001 23.8064 18.4264M23.8064 18.4264C23.4833 18.2458 22.7118 17.993 22.3241 18.4264M23.8064 18.4264C24.7756 18.3219 26.1724 18.5576 24.006 20.3365M24.006 20.3365C23.6354 20.4601 22.7403 20.633 22.1246 20.3365M24.006 20.3365C24.9752 20.6216 25.7618 22.9023 22.3241 24.8123C22.1758 24.8947 21.8089 25.0271 21.4019 24.9866C21.2911 24.9755 21.213 24.8727 21.2418 24.7652C21.2748 24.642 21.3376 24.5356 21.4449 24.558C21.5344 24.5767 21.5372 24.6962 21.4786 24.7665L21.4404 24.8123" stroke="white" stroke-width="0.114984"/>
<path d="M17.9062 18.9433C17.7067 18.9148 17.3075 18.6582 17.3075 18.6582L17.4501 19.0573C17.3075 19.0953 16.8514 19.0858 16.7659 19.0573L17.2505 19.599L17.165 19.884L18.1628 19.77" stroke="#FF9839" stroke-width="0.086238"/>
<path d="M19.6738 19.1143C19.3887 18.6296 18.6361 18.0369 17.6783 19.2001" stroke="black" stroke-width="0.057492"/>
<path d="M17.9863 19.0324C18.868 18.3679 19.4554 18.8173 19.6452 19.1428C19.4742 20.6253 17.8493 19.7701 17.5642 19.2284C17.6274 19.2522 17.6787 19.256 17.7196 19.2486C17.8325 19.228 17.8947 19.1014 17.9863 19.0324Z" fill="white" stroke="black" stroke-width="0.114984"/>
<path d="M23.3762 18.9363C23.5762 18.9067 23.9762 18.6406 23.9762 18.6406L23.8333 19.0546C23.9762 19.094 24.4336 19.0856 24.5191 19.0546L24.0333 19.6163L24.1191 19.912L23.119 19.7938" stroke="#FF9839" stroke-width="0.086238"/>
<path d="M21.6112 19.1307C21.8958 18.6325 22.6472 18.0233 23.6035 19.2189" stroke="black" stroke-width="0.057492"/>
<path d="M23.2945 19.0406C22.4283 18.3824 21.8512 18.8282 21.6646 19.1512C21.8328 20.6229 23.4305 19.7739 23.7108 19.2362C23.6495 19.2595 23.5995 19.2635 23.5596 19.2565C23.447 19.2367 23.3855 19.1097 23.2945 19.0406Z" fill="white" stroke="black" stroke-width="0.114984"/>
<path d="M20.6962 14.0371C20.1645 14.6278 18.8176 15.4903 20.6962 16.9672C21.6059 16.1874 22.2675 15.384 20.6962 14.0371Z" fill="white" stroke="black" stroke-width="0.023827"/>
<circle cx="20.6963" cy="15.5156" r="0.472589" fill="#121212"/>
<path d="M14.3818 15.4048C13.0334 15.0494 13.4311 13.8609 13.4824 13.1874C15.0024 13.2662 15.3865 13.8498 15.3862 14.6196C15.3859 15.1409 14.8859 15.5377 14.3818 15.4048Z" fill="#FBDA03" stroke="black" stroke-width="0.023827"/>
<circle cx="14.384" cy="14.3572" r="0.472589" transform="rotate(-37.6341 14.384 14.3572)" fill="#0033B7"/>
<path d="M16.9133 12.3617C15.6271 11.823 16.1854 10.7011 16.3293 10.0411C17.8239 10.3295 18.1235 10.9605 18.0166 11.7229C17.9443 12.2392 17.3942 12.563 16.9133 12.3617Z" fill="#FBDA03" stroke="black" stroke-width="0.023827"/>
<circle cx="17.0603" cy="11.323" r="0.472589" transform="rotate(-29.6819 17.0603 11.323)" fill="#CE0C0C"/>
<path d="M20.2255 11.0602C19.3535 9.97205 20.3804 9.25368 20.8224 8.74297C21.997 9.71093 21.9584 10.4084 21.5 11.0269C21.1895 11.4457 20.5515 11.467 20.2255 11.0602Z" fill="#FBDA03" stroke="black" stroke-width="0.023827"/>
<circle cx="20.8511" cy="10.2192" r="0.472589" transform="rotate(-1.11194 20.8511 10.2192)" fill="#0033B7"/>
<path d="M23.5395 11.7098C23.5607 10.3155 24.8099 10.4161 25.476 10.3041C25.7646 11.7986 25.2904 12.3115 24.543 12.4961C24.0369 12.6211 23.5316 12.231 23.5395 11.7098Z" fill="#FBDA03" stroke="black" stroke-width="0.023827"/>
<circle cx="24.5568" cy="11.4589" r="0.472589" transform="rotate(38.4674 24.5568 11.4589)" fill="#CE0C0C"/>
<path d="M25.6055 14.013C26.003 12.6764 27.1784 13.1112 27.85 13.1836C27.7236 14.7004 27.1283 15.066 26.3589 15.0415C25.8378 15.0249 25.4569 14.5127 25.6055 14.013Z" fill="#FBDA03" stroke="black" stroke-width="0.023827"/>
<circle cx="26.6519" cy="14.0485" r="0.472589" transform="rotate(54.1613 26.6519 14.0485)" fill="#0033B7"/>
<path d="M19.643 22.1339C19.3274 22.1104 18.8011 22.4704 18.4908 22.7124C18.4573 22.7385 18.4637 22.7904 18.5022 22.8084L20.0985 23.5574C20.497 23.7608 20.962 23.6506 21.2087 23.5574C21.9014 23.2439 23.2583 22.5864 23.1445 22.4644C23.0306 22.3424 22.4708 22.2441 22.2051 22.1339H19.643Z" fill="#840000" stroke="black" stroke-width="0.057492"/>
<path d="M19.7784 22.3587C19.5202 22.3424 19.0926 22.5873 18.8332 22.7574C18.8022 22.7778 18.8073 22.8244 18.8418 22.8381L20.1571 23.3604C20.4884 23.5035 20.8749 23.426 21.08 23.3604C21.6559 23.1398 22.7839 22.6771 22.6893 22.5913C22.5946 22.5054 22.0107 22.3296 21.9083 22.3587H19.7784Z" stroke="black" stroke-width="0.057492"/>
<path d="M19.4736 23.4435C19.6333 23.261 19.6352 22.6642 19.6162 22.3887H20.0438C19.9754 23.0957 19.6352 23.3864 19.4736 23.4435Z" fill="white" stroke="black" stroke-width="0.057492"/>
<path d="M22.0677 23.4161C21.9081 23.2337 21.9062 22.6369 21.9252 22.3613H21.4976C21.566 23.0683 21.9062 23.3591 22.0677 23.4161Z" fill="white" stroke="black" stroke-width="0.057492"/>
<circle cx="18.7322" cy="19.3108" r="0.48463" fill="#1E1E1E"/>
<circle cx="22.5524" cy="19.3108" r="0.48463" fill="#1E1E1E"/>
<path d="M25.6315 19.3406C25.8501 19.1136 26.1505 18.7303 26.4143 19.0202C26.4936 19.1074 26.5132 19.2332 26.4785 19.3458C26.3341 19.8146 25.794 20.6492 25.1754 21.1082" stroke="white" stroke-width="0.114984"/>
<path d="M15.8245 19.8757C15.6059 19.6488 15.3055 19.2655 15.0418 19.5553C14.9624 19.6425 14.9428 19.7683 14.9775 19.881C15.1219 20.3497 15.662 21.1844 16.2806 21.6434" stroke="white" stroke-width="0.114984"/>
<circle cx="15.34" cy="23.4434" r="1.05359" fill="#A52C05" stroke="#D80000" stroke-width="0.28746"/>
<circle cx="26.3439" cy="22.9864" r="1.05359" fill="#A52C05" stroke="#D80000" stroke-width="0.28746"/>
</svg>
